<svg version="1.1" xmlns="http://www.w3.org/2000/svg" xmlns:xlink="http://www.w3.org/1999/xlink" width="100.000000pt" height="100.000000pt" viewBox="0,0,256,256"><g fill="#000000" fill-rule="nonzero" stroke="none" stroke-width="1" stroke-linecap="butt" stroke-linejoin="miter" stroke-miterlimit="10" stroke-dasharray="" stroke-dashoffset="0" font-family="none" font-weight="none" font-size="none" text-anchor="none" style="mix-blend-mode: normal"><g transform="translate(-12.40411,-7.85187) scale(2.56,2.56)"><g transform="translate(0,100) scale(0.1,-0.1)"><path d="M421,928c-91,-31 -143,-148 -112,-255c6,-20 6,-35 0,-38c-18,-12 -8,-57 31,-131c44,-85 52,-140 23,-167c-10,-8 -54,-32 -98,-52c-114,-52 -165,-107 -165,-180v-25h265h265l45,-34c98,-75 233,-52 296,51c36,57 34,154 -3,210c-41,63 -90,88 -170,88c-58,0 -72,-4 -111,-32c-33,-23 -48,-28 -56,-20c-16,16 -13,89 4,111c8,11 15,27 15,36c0,9 9,25 20,35c24,22 37,82 22,106c-8,12 -8,28 -2,51c25,85 0,170 -58,200c-18,9 -42,24 -53,34c-24,21 -110,28 -158,12zM863,346c103,-43 128,-177 48,-257c-65,-65 -157,-65 -222,0c-124,123 13,325 174,257z"></path><path d="M714,279c-3,-6 9,-26 27,-45l33,-34l-34,-35c-26,-27 -31,-38 -22,-47c9,-9 20,-4 47,22l35,34l35,-34c27,-26 38,-31 47,-22c9,9 4,20 -22,47l-34,35l34,35c26,27 31,38 22,47c-9,9 -20,4 -47,-22l-35,-34l-33,32c-36,35 -42,37 -53,21z"></path></g></g></g></svg>